ffmpeg version N-55863-g9f38fac053-static https://johnvansickle.com/ffmpeg/  Copyright (c) 2000-2021 the FFmpeg developers
  built with gcc 8 (Debian 8.3.0-6)
  configuration: --enable-gpl --enable-version3 --enable-static --disable-debug --disable-ffplay --disable-indev=sndio --disable-outdev=sndio --cc=gcc --enable-fontconfig --enable-frei0r --enable-gnutls --enable-gmp --enable-libgme --enable-gray --enable-libaom --enable-libfribidi --enable-libass --enable-libvmaf --enable-libfreetype --enable-libmp3lame --enable-libopencore-amrnb --enable-libopencore-amrwb --enable-libopenjpeg --enable-librubberband --enable-libsoxr --enable-libspeex --enable-libsrt --enable-libvorbis --enable-libopus --enable-libtheora --enable-libvidstab --enable-libvo-amrwbenc --enable-libvpx --enable-libwebp --enable-libx264 --enable-libx265 --enable-libxml2 --enable-libdav1d --enable-libxvid --enable-libzvbi --enable-libzimg
  libavutil      56. 64.100 / 56. 64.100
  libavcodec     58.119.100 / 58.119.100
  libavformat    58. 65.101 / 58. 65.101
  libavdevice    58. 11.103 / 58. 11.103
  libavfilter     7.100.100 /  7.100.100
  libswscale      5.  8.100 /  5.  8.100
  libswresample   3.  8.100 /  3.  8.100
  libpostproc    55.  8.100 / 55.  8.100
[mov,mp4,m4a,3gp,3g2,mj2 @ 0x6edaa00] st: 1 edit list: 1 Missing key frame while searching for timestamp: 0
[mov,mp4,m4a,3gp,3g2,mj2 @ 0x6edaa00] st: 1 edit list 1 Cannot find an index entry before timestamp: 0.
Input #0, mov,mp4,m4a,3gp,3g2,mj2, from '/home/yiaapc5/public_html/f_data/data_userfiles/user_uploads/3232170153/v/1614520498.mp4':
  Metadata:
    major_brand     : isom
    minor_version   : 0
    compatible_brands: mp41avc1
    creation_time   : 2020-08-13T16:03:30.000000Z
    playback_requirements: QuickTime 6.0 or greater
    playback_requirements-eng: QuickTime 6.0 or greater
    encoder         : vlc 3.0.11 stream output
    encoder-eng     : vlc 3.0.11 stream output
  Duration: 00:00:36.42, start: 0.000000, bitrate: 1307 kb/s
    Stream #0:0(eng): Audio: aac (LC) (mp4a / 0x6134706D), 22050 Hz, stereo, fltp, 64 kb/s (default)
    Metadata:
      creation_time   : 2020-08-13T16:03:30.000000Z
      handler_name    : SoundHandler
      vendor_id       : [0][0][0][0]
    Stream #0:1(eng): Video: h264 (Main) (avc1 / 0x31637661), yuv420p, 1280x720 [SAR 1:1 DAR 16:9], 1236 kb/s, 24 fps, 24 tbr, 90k tbn, 48 tbc (default)
    Metadata:
      creation_time   : 2020-08-13T16:03:30.000000Z
      handler_name    : VideoHandler
      vendor_id       : [0][0][0][0]
Codec AVOption rc_eq (Set rate control equation. When computing the expression, besides the standard functions defined in the section 'Expression Evaluation', the following functions are available: bits2qp(bits), qp2bits(qp). Also the following constants are available: iTex pTex tex mv fCode iCount mcVar var isI isP isB avgQP qComp avgIITex avgPITex avgPPTex avgBPTex avgTex.) specified for output file #0 (/home/yiaapc5/public_html/f_data/data_userfiles/user_media/3232170153/v/50d04a1bc6d808a0ae0311ef99a23739.mob.nomob.mp4) has not been used for any stream. The most likely reason is either wrong type (e.g. a video option with no video streams) or that it is a private option of some encoder which was not actually used for any stream.
Stream mapping:
  Stream #0:1 -> #0:0 (h264 (native) -> h264 (libx264))
  Stream #0:0 -> #0:1 (aac (native) -> aac (native))
Press [q] to stop, [?] for help
[libx264 @ 0x6f19ac0] Application has requested 32 threads. Using a thread count greater than 16 is not recommended.
[libx264 @ 0x6f19ac0] using SAR=136/135
[libx264 @ 0x6f19ac0] frame MB size (30x17) > level limit (396)
[libx264 @ 0x6f19ac0] VBV bitrate (10000) > level limit (768)
[libx264 @ 0x6f19ac0] VBV buffer (10000) > level limit (2000)
[libx264 @ 0x6f19ac0] MB rate (12240) > level limit (11880)
[libx264 @ 0x6f19ac0] using cpu capabilities: MMX2 SSE2Fast SSSE3 SSE4.2 AVX
[libx264 @ 0x6f19ac0] profile Constrained Baseline, level 1.3, 4:2:0, 8-bit
[libx264 @ 0x6f19ac0] 264 - core 161 r3040 35417dc - H.264/MPEG-4 AVC codec - Copyleft 2003-2021 - http://www.videolan.org/x264.html - options: cabac=0 ref=1 deblock=1:0:0 analyse=0x1:0 me=hex subme=1 psy=1 psy_rd=1.00:0.00 mixed_ref=0 me_range=16 chroma_me=1 trellis=0 8x8dct=0 cqm=0 deadzone=21,11 fast_pskip=1 chroma_qp_offset=0 threads=32 lookahead_threads=2 sliced_threads=0 nr=0 decimate=1 interlaced=0 bluray_compat=0 constrained_intra=0 bframes=0 weightp=0 keyint=300 keyint_min=25 scenecut=40 intra_refresh=0 rc_lookahead=30 rc=abr mbtree=1 bitrate=1000 ratetol=1.0 qcomp=0.60 qpmin=10 qpmax=51 qpstep=4 vbv_maxrate=10000 vbv_bufsize=10000 nal_hrd=none filler=0 ip_ratio=1.41 aq=1:1.00
Output #0, mp4, to '/home/yiaapc5/public_html/f_data/data_userfiles/user_media/3232170153/v/50d04a1bc6d808a0ae0311ef99a23739.mob.nomob.mp4':
  Metadata:
    major_brand     : isom
    minor_version   : 0
    compatible_brands: mp41avc1
    encoder         : Lavf58.65.101
    playback_requirements: QuickTime 6.0 or greater
    playback_requirements-eng: QuickTime 6.0 or greater
    Stream #0:0(eng): Video: h264 (avc1 / 0x31637661), yuv420p(tv, progressive), 480x272 [SAR 136:135 DAR 16:9], q=2-31, 1000 kb/s, 24 fps, 12288 tbn (default)
    Metadata:
      creation_time   : 2020-08-13T16:03:30.000000Z
      handler_name    : VideoHandler
      vendor_id       : [0][0][0][0]
      encoder         : Lavc58.119.100 libx264
    Side data:
      cpb: bitrate max/min/avg: 10000000/0/1000000 buffer size: 10000000 vbv_delay: N/A
    Stream #0:1(eng): Audio: aac (LC) (mp4a / 0x6134706D), 22050 Hz, stereo, fltp, 64 kb/s (default)
    Metadata:
      creation_time   : 2020-08-13T16:03:30.000000Z
      handler_name    : SoundHandler
      vendor_id       : [0][0][0][0]
      encoder         : Lavc58.119.100 aac
frame=    1 fps=0.0 q=0.0 size=       0kB time=00:00:00.59 bitrate=   0.6kbits/s speed=18.8x    frame=  203 fps=0.0 q=20.0 size=     512kB time=00:00:09.04 bitrate= 463.6kbits/s speed=  17x    frame=  432 fps=418 q=27.0 size=    2304kB time=00:00:18.61 bitrate=1014.0kbits/s speed=  18x    frame=  657 fps=428 q=26.0 size=    3328kB time=00:00:27.90 bitrate= 977.1kbits/s speed=18.2x    frame=  871 fps=428 q=28.0 size=    4608kB time=00:00:36.26 bitrate=1041.0kbits/s speed=17.8x    frame=  875 fps=424 q=-1.0 Lsize=    5282kB time=00:00:36.41 bitrate=1188.2kbits/s dup=1 drop=0 speed=17.7x    
video:4979kB audio:286kB subtitle:0kB other streams:0kB global headers:0kB muxing overhead: 0.306242%
[libx264 @ 0x6f19ac0] frame I:7     Avg QP:17.01  size: 33209
[libx264 @ 0x6f19ac0] frame P:868   Avg QP:20.86  size:  5606
[libx264 @ 0x6f19ac0] mb I  I16..4:  4.6%  0.0% 95.4%
[libx264 @ 0x6f19ac0] mb P  I16..4:  1.0%  0.0%  0.0%  P16..4: 76.3%  0.0%  0.0%  0.0%  0.0%    skip:22.7%
[libx264 @ 0x6f19ac0] final ratefactor: 20.43
[libx264 @ 0x6f19ac0] coded y,uvDC,uvAC intra: 74.3% 75.0% 57.6% inter: 43.5% 22.1% 5.6%
[libx264 @ 0x6f19ac0] i16 v,h,dc,p: 34% 49% 12%  5%
[libx264 @ 0x6f19ac0] i4 v,h,dc,ddl,ddr,vr,hd,vl,hu: 23% 25%  8%  7%  6%  7%  7%  7% 10%
[libx264 @ 0x6f19ac0] i8c dc,h,v,p: 28% 34% 26% 12%
[libx264 @ 0x6f19ac0] kb/s:1118.66
[aac @ 0x6f35e80] Qavg: 162.972
